<?xml version="1.0" encoding="utf-8"?>
<!-- Generator: Adobe Illustrator 15.1.0, SVG Export Plug-In . SVG Version: 6.00 Build 0)  -->
<!DOCTYPE svg PUBLIC "-//W3C//DTD SVG 1.1//EN" "http://www.w3.org/Graphics/SVG/1.1/DTD/svg11.dtd">
<svg version="1.1" id="Layer_1" xmlns="http://www.w3.org/2000/svg" xmlns:xlink="http://www.w3.org/1999/xlink" x="0px" y="0px"
	 width="89.216px" height="82.79px" viewBox="261.392 354.622 89.216 82.79" enable-background="new 261.392 354.622 89.216 82.79"
	 xml:space="preserve">
<g>
	
		<linearGradient id="SVGID_1_" gradientUnits="userSpaceOnUse" x1="2276.2324" y1="-368.3701" x2="2276.2324" y2="-611.8701" gradientTransform="matrix(0.34 0 0 -0.34 0.3298 359.95)">
		<stop  offset="0" style="stop-color:#8F2C48"/>
		<stop  offset="1" style="stop-color:#E24585"/>
	</linearGradient>
	<path fill="url(#SVGID_1_)" d="M805.154,523.568c-3.639,0.985-7.345,1.258-10.88,0.714c-5.101-0.714-9.521-2.618-12.614-4.387
		c-12.376-6.834-27.982-18.121-43.316-9.758c4.013-8.16,7.65-14.79,12.853-20.842c-12.92,7.82-21.557,21.998-21.557,38.182
		c0,24.65,19.958,44.608,44.608,44.608s44.608-19.958,44.608-44.608c0-3.842-0.477-7.615-1.395-11.186
		C814.164,519.692,809.982,522.276,805.154,523.568"/>
	<g>
		<path fill="#FFFFFF" d="M743.988,549.17h5.27v-13.6h3.061v-3.979h-3.061v-0.714c0-1.496,1.156-1.632,1.632-1.632h2.21v-3.944
			h-2.38c-2.584,0-6.731,0.442-6.731,5.372v0.918h-1.973v3.979h1.973V549.17z"/>
		<path fill="#FFFFFF" d="M787.61,531.898c-1.429-1.496-3.4-1.769-4.624-1.769c-2.687,0-4.488,1.428-5.576,3.128
			c-1.395-2.584-3.502-3.128-5.066-3.128c-3.298,0-4.42,1.734-4.861,2.482h-0.068v-1.87h-4.896v17.578h5.271v-9.351
			c0-1.054,0-3.91,2.992-3.91c2.618,0,2.618,2.721,2.618,3.673v9.554h5.27v-9.588c0-0.986,0-3.638,2.924-3.638
			c2.687,0,2.687,2.481,2.687,3.909v9.351h5.27v-9.588C789.514,534.822,789.276,533.666,787.61,531.898z"/>
		
			<rect x="756.193" y="522.913" transform="matrix(-0.9847 -0.1741 0.1741 -0.9847 1408.8101 1199.4229)" fill="#FFFFFF" width="1.632" height="30.022"/>
	</g>
</g>
<g>
	<path fill="#FFFFFF" d="M715.938,388.894c-3.638,0.986-7.344,1.258-10.88,0.714c-5.1-0.714-9.52-2.618-12.613-4.386
		c-12.376-6.834-27.982-18.122-43.316-9.758c4.012-8.16,7.65-14.79,12.853-20.842c-12.921,7.82-21.557,21.998-21.557,38.182
		c0,24.65,19.958,44.608,44.608,44.608c24.649,0,44.607-19.958,44.607-44.608c0-3.842-0.476-7.616-1.394-11.186
		C724.948,385.018,720.8,387.602,715.938,388.894"/>
	<g>
		
			<linearGradient id="SVGID_2_" gradientUnits="userSpaceOnUse" x1="1935.3311" y1="-78.2827" x2="1935.3311" y2="-150.3452" gradientTransform="matrix(0.34 0 0 -0.34 0.3298 359.95)">
			<stop  offset="0" style="stop-color:#8F2C48"/>
			<stop  offset="1" style="stop-color:#E24585"/>
		</linearGradient>
		<path fill="url(#SVGID_2_)" d="M654.772,414.496h5.27v-13.6h3.06v-3.979h-3.06v-0.714c0-1.496,1.156-1.632,1.632-1.632h2.21
			v-3.944h-2.38c-2.584,0-6.731,0.442-6.731,5.372v0.918H652.8v3.979h1.973V414.496z"/>
		
			<linearGradient id="SVGID_3_" gradientUnits="userSpaceOnUse" x1="2019.0811" y1="-78.2827" x2="2019.0811" y2="-150.3452" gradientTransform="matrix(0.34 0 0 -0.34 0.3298 359.95)">
			<stop  offset="0" style="stop-color:#8F2C48"/>
			<stop  offset="1" style="stop-color:#E24585"/>
		</linearGradient>
		<path fill="url(#SVGID_3_)" d="M698.395,397.224c-1.429-1.496-3.4-1.768-4.625-1.768c-2.686,0-4.487,1.428-5.575,3.128
			c-1.395-2.584-3.502-3.128-5.066-3.128c-3.298,0-4.42,1.734-4.862,2.481h-0.067v-1.869h-4.896v17.578h5.271v-9.351
			c0-1.054,0-3.91,2.992-3.91c2.617,0,2.617,2.721,2.617,3.672v9.555h5.271v-9.588c0-0.986,0-3.639,2.924-3.639
			c2.687,0,2.687,2.482,2.687,3.91v9.35h5.27v-9.588C700.298,400.148,700.06,398.992,698.395,397.224z"/>
		
			<linearGradient id="SVGID_4_" gradientUnits="userSpaceOnUse" x1="1962.9814" y1="-78.2827" x2="1962.9814" y2="-150.3452" gradientTransform="matrix(0.34 0 0 -0.34 0.3298 359.95)">
			<stop  offset="0" style="stop-color:#8F2C48"/>
			<stop  offset="1" style="stop-color:#E24585"/>
		</linearGradient>
		<polygon fill="url(#SVGID_4_)" points="665.958,418.202 664.326,417.93 669.562,388.35 671.16,388.622 		"/>
	</g>
</g>
<g>
	<path d="M336.906,388.894c-3.639,0.986-7.344,1.258-10.88,0.714c-5.101-0.714-9.521-2.618-12.614-4.386
		c-12.376-6.834-27.982-18.122-43.316-9.758c4.012-8.16,7.65-14.79,12.852-20.842c-12.92,7.82-21.556,21.998-21.556,38.182
		c0,24.65,19.958,44.608,44.608,44.608c24.65,0,44.608-19.958,44.608-44.608c0-3.842-0.477-7.616-1.395-11.186
		C345.916,385.018,341.734,387.602,336.906,388.894"/>
	<g>
		<path fill="#FFFFFF" d="M275.706,414.496h5.27v-13.6h3.06v-3.979h-3.06v-0.714c0-1.496,1.156-1.632,1.632-1.632h2.21v-3.944h-2.38
			c-2.584,0-6.732,0.442-6.732,5.372v0.918h-1.972v3.979h1.972V414.496z"/>
		<path fill="#FFFFFF" d="M319.362,397.224c-1.429-1.496-3.4-1.768-4.624-1.768c-2.687,0-4.488,1.428-5.576,3.128
			c-1.395-2.584-3.502-3.128-5.066-3.128c-3.298,0-4.42,1.734-4.862,2.481h-0.068v-1.869h-4.896v17.578h5.27v-9.351
			c0-1.054,0-3.91,2.992-3.91c2.618,0,2.618,2.721,2.618,3.672v9.555h5.27v-9.588c0-0.986,0-3.639,2.924-3.639
			c2.687,0,2.687,2.482,2.687,3.91v9.35h5.27v-9.588C321.266,400.148,320.994,398.992,319.362,397.224z"/>
		
			<rect x="287.931" y="388.249" transform="matrix(-0.9848 -0.1739 0.1739 -0.9848 502.9882 850.5801)" fill="#FFFFFF" width="1.632" height="30.023"/>
	</g>
</g>
<g>
	<path fill="#FFFFFF" d="M984.232,347.414c-3.639,0.986-7.345,1.258-10.881,0.714c-5.1-0.714-9.52-2.618-12.613-4.386
		c-12.376-6.834-27.982-18.122-43.316-9.758c4.012-8.16,7.65-14.79,12.853-20.842c-12.92,7.82-21.557,21.998-21.557,38.182
		c0,24.65,19.958,44.608,44.608,44.608s44.607-19.958,44.607-44.608c0-3.842-0.476-7.616-1.394-11.186
		C993.242,343.538,989.06,346.122,984.232,347.414"/>
	<g>
		<path d="M923.032,373.016h5.27v-13.6h3.061v-3.978h-3.061v-0.714c0-1.496,1.156-1.632,1.632-1.632h2.211v-3.944h-2.381
			c-2.584,0-6.731,0.442-6.731,5.372v0.918h-1.973v3.978h1.973V373.016z"/>
		<path d="M966.688,355.744c-1.428-1.496-3.399-1.768-4.623-1.768c-2.687,0-4.488,1.428-5.576,3.128
			c-1.395-2.584-3.502-3.128-5.066-3.128c-3.298,0-4.42,1.734-4.862,2.482h-0.067v-1.87h-4.896v17.578h5.271v-9.35
			c0-1.054,0-3.91,2.992-3.91c2.618,0,2.618,2.72,2.618,3.672v9.554h5.27v-9.588c0-0.986,0-3.638,2.924-3.638
			c2.687,0,2.687,2.482,2.687,3.91v9.35h5.27v-9.588C968.592,358.668,968.32,357.512,966.688,355.744z"/>
		
			<rect x="935.271" y="346.75" transform="matrix(-0.9848 -0.1739 0.1739 -0.9848 1794.9982 880.8003)" width="1.631" height="30.023"/>
	</g>
</g>
</svg>
