<?xml version="1.0" encoding="utf-8"?>
<!-- Generator: Adobe Illustrator 15.1.0, SVG Export Plug-In . SVG Version: 6.00 Build 0)  -->
<!DOCTYPE svg PUBLIC "-//W3C//DTD SVG 1.1//EN" "http://www.w3.org/Graphics/SVG/1.1/DTD/svg11.dtd">
<svg version="1.1" id="Layer_1" xmlns="http://www.w3.org/2000/svg" xmlns:xlink="http://www.w3.org/1999/xlink" x="0px" y="0px"
	 width="88.4px" height="82.042px" viewBox="261.8 354.996 88.4 82.042" enable-background="new 261.8 354.996 88.4 82.042"
	 xml:space="preserve">
<g>
	
		<linearGradient id="SVGID_1_" gradientUnits="userSpaceOnUse" x1="2597.4316" y1="639.1396" x2="2597.4316" y2="379.2344" gradientTransform="matrix(0.34 0 0 -0.34 0.3298 359.95)">
		<stop  offset="0" style="stop-color:#8F2C48"/>
		<stop  offset="1" style="stop-color:#E24585"/>
	</linearGradient>
	<path fill="url(#SVGID_1_)" d="M926.228,174.626c-3.229,3.366-7.378,5.916-12.172,7.208c-3.604,0.952-7.275,1.258-10.777,0.714
		c-5.066-0.714-9.452-2.584-12.513-4.352c-12.273-6.766-27.71-17.952-42.874-9.69c3.979-8.092,7.582-14.654,12.716-20.638
		c-12.783,7.752-21.352,21.794-21.352,37.842c0,24.412,19.788,44.2,44.2,44.2s44.2-19.788,44.2-44.2
		C927.656,181.868,927.146,178.162,926.228,174.626z"/>
	<g>
		<rect x="876.895" y="185.608" fill="#FFFFFF" width="2.142" height="1.632"/>
		<path fill="#FFFFFF" d="M855.61,195.4c0.85,0,1.733-0.306,2.073-1.02h0.034v0.782h2.143v-5.644l2.04,5.644h2.04l1.189-3.298
			c0.136,1.666,1.395,3.502,3.842,3.502c1.803,0,2.958-0.986,3.503-2.21v1.972h2.142v-3.944c0-1.088,0.68-1.292,1.7-1.326v-2.142
			c-1.225,0-1.599,0.646-1.803,1.02h-0.033v-0.748h-2.006v1.972c-0.545-1.19-1.7-2.21-3.503-2.21c-1.224,0-2.142,0.442-2.754,1.088
			l0.307-0.85h-2.21l-1.36,4.454h-0.034l-1.36-4.454h-1.665h-0.545h-1.598v0.748h-0.034c-0.271-0.442-0.918-1.02-2.074-1.02
			c-1.903,0-3.604,1.462-3.604,3.808C852.04,193.632,853.366,195.4,855.61,195.4z M868.972,189.756c0.918,0,1.7,0.748,1.7,1.802
			c0,1.054-0.782,1.802-1.7,1.802s-1.699-0.748-1.699-1.802C867.272,190.538,868.054,189.756,868.972,189.756z M855.95,189.756
			c1.224,0,1.802,0.952,1.802,1.802c0,0.68-0.442,1.836-1.802,1.836c-1.292,0-1.769-1.122-1.769-1.802
			C854.182,190.776,854.726,189.756,855.95,189.756z"/>
		<rect x="876.895" y="187.988" fill="#FFFFFF" width="2.142" height="7.174"/>
		<polygon fill="#FFFFFF" points="880.634,195.162 882.776,195.162 882.776,189.62 883.796,189.62 883.796,187.988 882.776,187.988 
			882.776,185.608 880.634,185.608 880.634,187.988 879.58,187.988 879.58,189.62 880.634,189.62 		"/>
		<path fill="#FFFFFF" d="M887.808,195.4c0.748,0,1.429-0.204,2.04-0.646c0.612-0.408,1.122-1.02,1.462-1.836h-2.21
			c-0.306,0.374-0.646,0.68-1.292,0.68c-0.85,0-1.563-0.51-1.666-1.36h5.372c0.034-0.17,0.068-0.272,0.068-0.578
			c0-2.176-1.598-3.91-3.774-3.91c-2.176,0-3.739,1.836-3.739,3.842C884.034,193.734,885.768,195.4,887.808,195.4z M887.774,189.552
			c1.122,0,1.529,0.816,1.632,1.224h-3.265C886.244,190.368,886.686,189.552,887.774,189.552z"/>
		<path fill="#FFFFFF" d="M872.542,200.194c-0.238-0.238-0.85-0.85-2.108-0.85c-1.598,0-3.128,1.054-3.468,2.958
			c-0.374-1.734-1.802-2.958-3.672-2.958c-1.768,0-3.162,1.224-3.604,2.754c-0.034-1.02-0.204-1.462-0.748-2.04
			c-0.578-0.612-1.395-0.714-1.87-0.714c-1.088,0-1.836,0.578-2.278,1.292c-0.578-1.054-1.428-1.292-2.074-1.292
			c-1.325,0-1.802,0.714-1.972,1.021h-0.034v-0.748h-2.006v7.174h2.142v-3.808c0-0.442,0-1.598,1.225-1.598
			c1.054,0,1.054,1.122,1.054,1.496v3.91h2.143v-3.91c0-0.408,0-1.496,1.189-1.496c1.088,0,1.088,1.02,1.088,1.598v3.808h2.143
			v-2.448c0.476,1.564,1.938,2.686,3.638,2.686c0.748,0,1.428-0.204,2.04-0.646c0.612-0.408,1.122-1.02,1.462-1.836h-2.21
			c-0.306,0.374-0.646,0.68-1.292,0.68c-0.85,0-1.564-0.51-1.666-1.36h5.304c0.272,1.836,1.599,3.162,3.536,3.162
			c1.428,0,1.973-0.714,2.143-1.02h0.033v0.782h2.04v-9.554h-2.142v2.958H872.542z M861.662,202.404
			c0.102-0.442,0.51-1.224,1.632-1.224s1.53,0.816,1.632,1.224H861.662z M870.808,204.988c-1.02,0-1.802-0.748-1.802-1.836
			c0-0.816,0.578-1.802,1.802-1.802c1.19,0,1.803,0.918,1.803,1.802C872.645,203.9,872.168,204.988,870.808,204.988z"/>
		<rect x="875.33" y="199.616" fill="#FFFFFF" width="2.142" height="7.174"/>
		<rect x="875.33" y="197.202" fill="#FFFFFF" width="2.142" height="1.632"/>
		<path fill="#FFFFFF" d="M882.708,203.56c0,1.122-0.612,1.462-1.224,1.462c-1.156,0-1.156-0.952-1.156-1.428v-3.944h-2.143v4.25
			c0,0.986,0.068,1.496,0.646,2.21c0.646,0.816,1.666,0.918,2.107,0.918c0.545,0,1.429-0.068,1.87-0.986h0.034v0.748h2.04v-7.174
			h-2.142v3.944H882.708z"/>
		<path fill="#FFFFFF" d="M895.798,200.092c-0.578-0.612-1.394-0.714-1.87-0.714c-1.088,0-1.836,0.578-2.277,1.292
			c-0.578-1.054-1.429-1.292-2.074-1.292c-1.326,0-1.802,0.714-1.973,1.02h-0.033v-0.748h-2.006v7.174h2.142v-3.808
			c0-0.442,0-1.598,1.224-1.598c1.055,0,1.055,1.122,1.055,1.496v3.91h2.142v-3.91c0-0.408,0-1.496,1.19-1.496
			c1.088,0,1.088,1.02,1.088,1.598v3.808h2.142v-3.91C896.58,201.282,896.478,200.772,895.798,200.092z"/>
		<path fill="#FFFFFF" d="M848.708,195.196h2.142v-5.542h1.259v-1.632h-1.259v-0.272c0-0.612,0.477-0.68,0.646-0.68h0.918v-1.598
			h-0.952c-1.054,0-2.72,0.17-2.72,2.21v0.374h-0.816v1.632h0.816v5.508H848.708z"/>
	</g>
</g>
<g>
	<path fill="#FFFFFF" d="M801.55,249.562c-3.229,3.366-7.378,5.916-12.172,7.208c-3.604,0.952-7.276,1.258-10.778,0.714
		c-5.065-0.714-9.451-2.584-12.512-4.352c-12.273-6.766-27.71-17.952-42.874-9.69c3.979-8.092,7.582-14.654,12.716-20.638
		c-12.784,7.752-21.352,21.794-21.352,37.842c0,24.412,19.788,44.2,44.2,44.2c24.411,0,44.199-19.788,44.199-44.2
		C802.944,256.804,802.468,253.098,801.55,249.562z"/>
	<g>
		
			<linearGradient id="SVGID_2_" gradientUnits="userSpaceOnUse" x1="2214.582" y1="296.9697" x2="2214.582" y2="232.9402" gradientTransform="matrix(0.34 0 0 -0.34 0.3298 359.95)">
			<stop  offset="0" style="stop-color:#8F2C48"/>
			<stop  offset="1" style="stop-color:#E24585"/>
		</linearGradient>
		<rect x="752.216" y="260.544" fill="url(#SVGID_2_)" width="2.143" height="1.632"/>
		
			<linearGradient id="SVGID_3_" gradientUnits="userSpaceOnUse" x1="2174.0312" y1="296.9678" x2="2174.0312" y2="232.9643" gradientTransform="matrix(0.34 0 0 -0.34 0.3298 359.95)">
			<stop  offset="0" style="stop-color:#8F2C48"/>
			<stop  offset="1" style="stop-color:#E24585"/>
		</linearGradient>
		<path fill="url(#SVGID_3_)" d="M730.932,270.336c0.851,0,1.734-0.306,2.074-1.02h0.034v0.782h2.142v-5.678l2.04,5.644h2.04
			l1.19-3.298c0.136,1.666,1.394,3.502,3.842,3.502c1.802,0,2.958-0.986,3.502-2.21v1.972h2.143v-3.944
			c0-1.088,0.68-1.292,1.7-1.326v-2.142c-1.225,0-1.599,0.646-1.803,1.02h-0.034v-0.748h-2.006v1.972
			c-0.544-1.19-1.7-2.21-3.502-2.21c-1.224,0-2.142,0.442-2.754,1.088l0.306-0.85h-2.21l-1.359,4.454h-0.034l-1.36-4.454h-1.666
			h-0.544h-1.598v0.748h-0.034c-0.272-0.442-0.918-1.02-2.074-1.02c-1.904,0-3.604,1.462-3.604,3.808
			C727.328,268.534,728.654,270.336,730.932,270.336z M744.294,264.692c0.918,0,1.7,0.748,1.7,1.802c0,1.054-0.782,1.802-1.7,1.802
			s-1.7-0.748-1.7-1.802C742.594,265.44,743.376,264.692,744.294,264.692z M731.238,264.692c1.224,0,1.802,0.952,1.802,1.802
			c0,0.68-0.442,1.836-1.802,1.836c-1.292,0-1.769-1.122-1.769-1.802C729.47,265.712,730.014,264.692,731.238,264.692z"/>
		
			<linearGradient id="SVGID_4_" gradientUnits="userSpaceOnUse" x1="2214.582" y1="296.9678" x2="2214.582" y2="232.9643" gradientTransform="matrix(0.34 0 0 -0.34 0.3298 359.95)">
			<stop  offset="0" style="stop-color:#8F2C48"/>
			<stop  offset="1" style="stop-color:#E24585"/>
		</linearGradient>
		<rect x="752.216" y="262.924" fill="url(#SVGID_4_)" width="2.143" height="7.174"/>
		
			<linearGradient id="SVGID_5_" gradientUnits="userSpaceOnUse" x1="2225.5322" y1="296.9678" x2="2225.5322" y2="232.9643" gradientTransform="matrix(0.34 0 0 -0.34 0.3298 359.95)">
			<stop  offset="0" style="stop-color:#8F2C48"/>
			<stop  offset="1" style="stop-color:#E24585"/>
		</linearGradient>
		<polygon fill="url(#SVGID_5_)" points="755.956,270.098 758.098,270.098 758.098,264.556 759.118,264.556 759.118,262.924 
			758.098,262.924 758.098,260.544 755.956,260.544 755.956,262.924 754.902,262.924 754.902,264.556 755.956,264.556 		"/>
		
			<linearGradient id="SVGID_6_" gradientUnits="userSpaceOnUse" x1="2243.5791" y1="296.9678" x2="2243.5791" y2="232.9643" gradientTransform="matrix(0.34 0 0 -0.34 0.3298 359.95)">
			<stop  offset="0" style="stop-color:#8F2C48"/>
			<stop  offset="1" style="stop-color:#E24585"/>
		</linearGradient>
		<path fill="url(#SVGID_6_)" d="M763.13,270.302c0.748,0,1.428-0.204,2.04-0.646c0.612-0.408,1.122-1.021,1.462-1.836h-2.21
			c-0.306,0.374-0.646,0.68-1.292,0.68c-0.85,0-1.563-0.51-1.666-1.36h5.372c0.034-0.17,0.068-0.272,0.068-0.578
			c0-2.176-1.599-3.91-3.774-3.91s-3.74,1.836-3.74,3.842C759.322,268.636,761.056,270.302,763.13,270.302z M763.096,264.488
			c1.122,0,1.53,0.816,1.632,1.224h-3.264C761.566,265.27,761.974,264.488,763.096,264.488z"/>
		
			<linearGradient id="SVGID_7_" gradientUnits="userSpaceOnUse" x1="2166.6816" y1="296.9678" x2="2166.6816" y2="232.9643" gradientTransform="matrix(0.34 0 0 -0.34 0.3298 359.95)">
			<stop  offset="0" style="stop-color:#8F2C48"/>
			<stop  offset="1" style="stop-color:#E24585"/>
		</linearGradient>
		<path fill="url(#SVGID_7_)" d="M747.83,275.13c-0.238-0.238-0.85-0.85-2.108-0.85c-1.598,0-3.128,1.054-3.468,2.958
			c-0.374-1.734-1.802-2.958-3.672-2.958c-1.768,0-3.162,1.224-3.604,2.754c-0.033-1.02-0.203-1.462-0.747-2.04
			c-0.578-0.612-1.395-0.714-1.87-0.714c-1.088,0-1.836,0.578-2.278,1.292c-0.578-1.054-1.428-1.292-2.074-1.292
			c-1.326,0-1.802,0.714-1.972,1.02h-0.034v-0.748h-2.006v7.174h2.142v-3.808c0-0.442,0-1.598,1.225-1.598
			c1.054,0,1.054,1.122,1.054,1.496v3.91h2.142v-3.91c0-0.408,0-1.496,1.19-1.496c1.088,0,1.088,1.02,1.088,1.598v3.808h2.143
			v-2.448c0.476,1.564,1.938,2.686,3.638,2.686c0.748,0,1.428-0.204,2.04-0.646c0.611-0.408,1.122-1.02,1.462-1.836h-2.21
			c-0.306,0.374-0.646,0.68-1.292,0.68c-0.851,0-1.564-0.51-1.666-1.36h5.304c0.272,1.836,1.599,3.162,3.536,3.162
			c1.428,0,1.972-0.714,2.142-1.02h0.034v0.782h2.04v-9.554h-2.142v2.958H747.83z M736.984,277.306
			c0.102-0.442,0.51-1.224,1.632-1.224s1.53,0.816,1.632,1.224H736.984z M746.13,279.924c-1.02,0-1.802-0.748-1.802-1.836
			c0-0.816,0.578-1.802,1.802-1.802c1.19,0,1.802,0.918,1.802,1.802C747.966,278.836,747.456,279.924,746.13,279.924z"/>
		
			<linearGradient id="SVGID_8_" gradientUnits="userSpaceOnUse" x1="2209.9814" y1="296.9722" x2="2209.9814" y2="232.9628" gradientTransform="matrix(0.34 0 0 -0.34 0.3298 359.95)">
			<stop  offset="0" style="stop-color:#8F2C48"/>
			<stop  offset="1" style="stop-color:#E24585"/>
		</linearGradient>
		<rect x="750.652" y="274.518" fill="url(#SVGID_8_)" width="2.142" height="7.174"/>
		
			<linearGradient id="SVGID_9_" gradientUnits="userSpaceOnUse" x1="2209.9814" y1="296.9678" x2="2209.9814" y2="232.9643" gradientTransform="matrix(0.34 0 0 -0.34 0.3298 359.95)">
			<stop  offset="0" style="stop-color:#8F2C48"/>
			<stop  offset="1" style="stop-color:#E24585"/>
		</linearGradient>
		<rect x="750.652" y="272.138" fill="url(#SVGID_9_)" width="2.142" height="1.632"/>
		
			<linearGradient id="SVGID_10_" gradientUnits="userSpaceOnUse" x1="2225.0811" y1="296.9717" x2="2225.0811" y2="232.9625" gradientTransform="matrix(0.34 0 0 -0.34 0.3298 359.95)">
			<stop  offset="0" style="stop-color:#8F2C48"/>
			<stop  offset="1" style="stop-color:#E24585"/>
		</linearGradient>
		<path fill="url(#SVGID_10_)" d="M758.03,278.496c0,1.122-0.612,1.462-1.225,1.462c-1.155,0-1.155-0.952-1.155-1.428v-3.944h-2.143
			v4.284c0,0.986,0.068,1.496,0.646,2.21c0.646,0.816,1.666,0.918,2.107,0.918c0.544,0,1.428-0.068,1.87-0.986h0.034v0.748h2.04
			v-7.174h-2.142v3.91H758.03z"/>
		
			<linearGradient id="SVGID_11_" gradientUnits="userSpaceOnUse" x1="2253.0898" y1="296.9678" x2="2253.0898" y2="232.9643" gradientTransform="matrix(0.34 0 0 -0.34 0.3298 359.95)">
			<stop  offset="0" style="stop-color:#8F2C48"/>
			<stop  offset="1" style="stop-color:#E24585"/>
		</linearGradient>
		<path fill="url(#SVGID_11_)" d="M771.12,274.994c-0.578-0.612-1.395-0.714-1.87-0.714c-1.088,0-1.836,0.578-2.278,1.292
			c-0.577-1.054-1.428-1.292-2.073-1.292c-1.326,0-1.803,0.714-1.973,1.02h-0.034v-0.748h-2.006v7.174h2.143v-3.808
			c0-0.442,0-1.598,1.224-1.598c1.054,0,1.054,1.122,1.054,1.496v3.91h2.143v-3.91c0-0.408,0-1.496,1.189-1.496
			c1.089,0,1.089,1.02,1.089,1.598v3.808h2.142v-3.91C771.902,276.184,771.8,275.708,771.12,274.994z"/>
		
			<linearGradient id="SVGID_12_" gradientUnits="userSpaceOnUse" x1="2132.832" y1="296.9678" x2="2132.832" y2="232.9643" gradientTransform="matrix(0.34 0 0 -0.34 0.3298 359.95)">
			<stop  offset="0" style="stop-color:#8F2C48"/>
			<stop  offset="1" style="stop-color:#E24585"/>
		</linearGradient>
		<path fill="url(#SVGID_12_)" d="M724.03,270.132h2.142v-5.542h1.258v-1.632h-1.258v-0.272c0-0.612,0.477-0.68,0.646-0.68h0.918
			v-1.598h-0.952c-1.055,0-2.72,0.17-2.72,2.21v0.374h-0.816v1.632h0.816v5.508H724.03z"/>
	</g>
</g>
<g>
	<path d="M838.61,396.204c-3.23,3.366-7.378,5.916-12.173,7.208c-3.604,0.952-7.275,1.258-10.777,0.714
		c-5.066-0.714-9.452-2.584-12.512-4.352c-12.274-6.767-27.711-17.953-42.874-9.69c3.978-8.092,7.581-14.654,12.716-20.638
		c-12.784,7.752-21.353,21.794-21.353,37.842c0,24.412,19.788,44.2,44.2,44.2s44.2-19.788,44.2-44.2
		C840.004,403.446,839.528,399.74,838.61,396.204z"/>
	<g>
		<rect x="789.242" y="407.152" fill="#FFFFFF" width="2.142" height="1.632"/>
		<path fill="#FFFFFF" d="M767.992,416.944c0.85,0,1.734-0.307,2.074-1.021h0.033v0.782h2.143v-5.644l2.04,5.644h2.04l1.189-3.298
			c0.137,1.666,1.395,3.502,3.843,3.502c1.802,0,2.958-0.986,3.502-2.21v1.972h2.142v-3.944c0-1.088,0.68-1.292,1.7-1.325v-2.143
			c-1.224,0-1.598,0.646-1.802,1.021h-0.034v-0.748h-2.006v1.972c-0.544-1.189-1.7-2.21-3.502-2.21
			c-1.225,0-2.143,0.442-2.755,1.088l0.307-0.85h-2.21l-1.36,4.454h-0.034l-1.359-4.454h-1.666h-0.544h-1.599v0.748H770.1
			c-0.271-0.442-0.918-1.021-2.073-1.021c-1.904,0-3.604,1.462-3.604,3.809C764.388,415.176,765.714,416.944,767.992,416.944z
			 M781.354,411.3c0.918,0,1.699,0.748,1.699,1.802c0,1.055-0.781,1.803-1.699,1.803c-0.919,0-1.7-0.748-1.7-1.803
			C779.62,412.082,780.402,411.3,781.354,411.3z M768.298,411.3c1.225,0,1.802,0.952,1.802,1.802c0,0.681-0.441,1.837-1.802,1.837
			c-1.292,0-1.768-1.122-1.768-1.803C766.53,412.32,767.074,411.3,768.298,411.3z"/>
		<rect x="789.242" y="409.532" fill="#FFFFFF" width="2.142" height="7.174"/>
		<polygon fill="#FFFFFF" points="792.982,416.706 795.124,416.706 795.124,411.164 796.178,411.164 796.178,409.532 
			795.124,409.532 795.124,407.152 792.982,407.152 792.982,409.532 791.928,409.532 791.928,411.164 792.982,411.164 		"/>
		<path fill="#FFFFFF" d="M800.156,416.944c0.748,0,1.428-0.204,2.04-0.646c0.611-0.408,1.122-1.02,1.462-1.836h-2.21
			c-0.307,0.374-0.646,0.68-1.292,0.68c-0.851,0-1.564-0.51-1.666-1.359h5.372c0.034-0.17,0.067-0.272,0.067-0.578
			c0-2.176-1.598-3.91-3.773-3.91c-2.177,0-3.74,1.836-3.74,3.842C796.382,415.278,798.116,416.944,800.156,416.944z
			 M800.156,411.096c1.122,0,1.529,0.816,1.632,1.225h-3.264C798.592,411.912,799.034,411.096,800.156,411.096z"/>
		<path fill="#FFFFFF" d="M784.89,421.772c-0.237-0.238-0.85-0.851-2.107-0.851c-1.599,0-3.128,1.054-3.468,2.958
			c-0.374-1.733-1.803-2.958-3.673-2.958c-1.768,0-3.161,1.225-3.604,2.754c-0.034-1.02-0.204-1.462-0.748-2.04
			c-0.578-0.611-1.394-0.714-1.87-0.714c-1.088,0-1.836,0.578-2.278,1.292c-0.577-1.054-1.428-1.292-2.073-1.292
			c-1.326,0-1.803,0.714-1.973,1.021h-0.034v-0.782h-2.006v7.14h2.143v-3.808c0-0.442,0-1.599,1.224-1.599
			c1.055,0,1.055,1.122,1.055,1.496v3.91h2.142v-3.91c0-0.407,0-1.496,1.189-1.496c1.089,0,1.089,1.021,1.089,1.599v3.808h2.142
			v-2.448c0.476,1.564,1.938,2.687,3.638,2.687c0.748,0,1.429-0.204,2.04-0.646c0.612-0.407,1.122-1.02,1.462-1.836h-2.21
			c-0.306,0.374-0.646,0.681-1.292,0.681c-0.85,0-1.563-0.511-1.666-1.36h5.305c0.271,1.836,1.598,3.162,3.535,3.162
			c1.429,0,1.973-0.714,2.143-1.021h0.034v0.782h2.04v-9.52h-2.143v2.992H784.89z M774.01,423.948
			c0.103-0.442,0.51-1.225,1.632-1.225s1.53,0.816,1.633,1.225H774.01z M783.156,426.532c-1.021,0-1.803-0.748-1.803-1.836
			c0-0.816,0.578-1.803,1.803-1.803c1.189,0,1.802,0.919,1.802,1.803C784.992,425.444,784.516,426.532,783.156,426.532z"/>
		<rect x="787.678" y="421.16" fill="#FFFFFF" width="2.143" height="7.174"/>
		<rect x="787.678" y="418.78" fill="#FFFFFF" width="2.143" height="1.632"/>
		<path fill="#FFFFFF" d="M795.09,425.104c0,1.122-0.612,1.463-1.224,1.463c-1.156,0-1.156-0.952-1.156-1.429v-3.978h-2.142v4.284
			c0,0.985,0.067,1.496,0.646,2.21c0.646,0.815,1.666,0.918,2.108,0.918c0.544,0,1.428-0.068,1.87-0.986h0.033v0.748h2.04v-7.174
			h-2.142v3.943H795.09z"/>
		<path fill="#FFFFFF" d="M808.18,421.636c-0.578-0.611-1.394-0.714-1.87-0.714c-1.088,0-1.836,0.578-2.277,1.292
			c-0.578-1.054-1.428-1.292-2.074-1.292c-1.326,0-1.802,0.714-1.972,1.021h-0.034v-0.782h-2.006v7.14h2.142v-3.808
			c0-0.442,0-1.599,1.225-1.599c1.054,0,1.054,1.122,1.054,1.496v3.91h2.142v-3.91c0-0.407,0-1.496,1.19-1.496
			c1.088,0,1.088,1.021,1.088,1.599v3.808h2.142v-3.91C808.962,422.826,808.826,422.35,808.18,421.636z"/>
		<path fill="#FFFFFF" d="M761.056,416.74h2.143v-5.542h1.258V409.6h-1.258v-0.271c0-0.612,0.476-0.68,0.646-0.68h0.918v-1.599
			h-0.952c-1.054,0-2.72,0.17-2.72,2.21v0.374h-0.815v1.632h0.815v5.475H761.056z"/>
	</g>
</g>
<g>
	<path fill="#FFFFFF" d="M348.772,381.754c-3.23,3.366-7.379,5.916-12.173,7.208c-3.604,0.952-7.275,1.258-10.777,0.714
		c-5.066-0.714-9.452-2.584-12.513-4.352c-12.273-6.766-27.709-17.952-42.874-9.69c3.978-8.092,7.582-14.654,12.716-20.638
		c-12.784,7.752-21.352,21.794-21.352,37.842c0,24.412,19.788,44.2,44.2,44.2s44.2-19.788,44.2-44.2
		C350.2,388.996,349.69,385.29,348.772,381.754z"/>
	<g>
		<rect x="299.438" y="392.736" width="2.142" height="1.632"/>
		<path d="M278.154,402.528c0.85,0,1.734-0.307,2.074-1.021h0.034v0.782h2.142v-5.644l2.04,5.644h2.04l1.19-3.298
			c0.136,1.666,1.394,3.502,3.842,3.502c1.802,0,2.958-0.986,3.502-2.21v1.972h2.142v-3.943c0-1.089,0.68-1.293,1.7-1.326v-2.143
			c-1.224,0-1.598,0.646-1.802,1.02h-0.034v-0.748h-2.006v1.972c-0.544-1.19-1.7-2.21-3.502-2.21c-1.224,0-2.142,0.442-2.754,1.088
			l0.306-0.85h-2.21l-1.36,4.454h-0.034l-1.36-4.454h-1.666h-0.544h-1.598v0.748h-0.034c-0.272-0.442-0.918-1.02-2.074-1.02
			c-1.904,0-3.604,1.462-3.604,3.809C274.584,400.726,275.91,402.528,278.154,402.528z M291.516,396.884
			c0.918,0,1.7,0.748,1.7,1.802c0,1.055-0.782,1.803-1.7,1.803s-1.7-0.748-1.7-1.803
			C289.816,397.632,290.598,396.884,291.516,396.884z M278.46,396.884c1.224,0,1.802,0.952,1.802,1.802
			c0,0.681-0.442,1.837-1.802,1.837c-1.292,0-1.768-1.122-1.768-1.803C276.726,397.904,277.236,396.884,278.46,396.884z"/>
		<rect x="299.438" y="395.116" width="2.142" height="7.174"/>
		<polygon points="303.178,402.29 305.32,402.29 305.32,396.748 306.34,396.748 306.34,395.116 305.32,395.116 305.32,392.736 
			303.178,392.736 303.178,395.116 302.124,395.116 302.124,396.748 303.178,396.748 		"/>
		<path d="M310.352,402.494c0.748,0,1.429-0.204,2.04-0.646c0.612-0.407,1.122-1.02,1.462-1.836h-2.21
			c-0.306,0.374-0.646,0.681-1.292,0.681c-0.85,0-1.563-0.511-1.666-1.36h5.372c0.034-0.17,0.068-0.272,0.068-0.578
			c0-2.176-1.598-3.91-3.774-3.91c-2.176,0-3.739,1.836-3.739,3.842C306.578,400.828,308.312,402.494,310.352,402.494z
			 M310.318,396.68c1.122,0,1.529,0.816,1.632,1.225h-3.23C308.788,397.462,309.23,396.68,310.318,396.68z"/>
		<path d="M295.052,407.322c-0.238-0.238-0.85-0.851-2.108-0.851c-1.598,0-3.128,1.055-3.468,2.958
			c-0.374-1.733-1.802-2.958-3.672-2.958c-1.768,0-3.162,1.225-3.604,2.754c-0.034-1.02-0.204-1.462-0.748-2.04
			c-0.578-0.611-1.394-0.714-1.87-0.714c-1.088,0-1.836,0.578-2.278,1.292c-0.578-1.054-1.428-1.292-2.074-1.292
			c-1.326,0-1.802,0.714-1.972,1.021h-0.034v-0.748h-2.006v7.174h2.142v-3.808c0-0.442,0-1.599,1.224-1.599
			c1.054,0,1.054,1.122,1.054,1.496v3.91h2.142v-3.91c0-0.408,0-1.496,1.19-1.496c1.088,0,1.088,1.021,1.088,1.599v3.808h2.142
			v-2.448c0.476,1.564,1.938,2.687,3.638,2.687c0.748,0,1.428-0.204,2.04-0.646c0.612-0.408,1.122-1.02,1.462-1.836h-2.21
			c-0.306,0.374-0.646,0.68-1.292,0.68c-0.85,0-1.564-0.51-1.666-1.359h5.304c0.272,1.836,1.598,3.162,3.536,3.162
			c1.428,0,1.972-0.714,2.142-1.021h0.034v0.782h2.04v-9.554h-2.142v2.958H295.052z M284.206,409.498
			c0.102-0.442,0.51-1.224,1.632-1.224s1.53,0.815,1.632,1.224H284.206z M293.352,412.116c-1.02,0-1.802-0.748-1.802-1.836
			c0-0.816,0.578-1.803,1.802-1.803c1.19,0,1.802,0.919,1.802,1.803C295.188,411.028,294.678,412.116,293.352,412.116z"/>
		<rect x="297.874" y="406.71" width="2.142" height="7.174"/>
		<rect x="297.874" y="404.33" width="2.142" height="1.632"/>
		<path d="M305.252,410.688c0,1.121-0.612,1.462-1.224,1.462c-1.156,0-1.156-0.952-1.156-1.429v-3.943h-2.142v4.284
			c0,0.985,0.068,1.495,0.646,2.21c0.646,0.815,1.666,0.918,2.108,0.918c0.544,0,1.428-0.068,1.87-0.986h0.034v0.748h2.04v-7.174
			h-2.142v3.91H305.252z"/>
		<path d="M318.342,407.186c-0.578-0.611-1.394-0.714-1.87-0.714c-1.088,0-1.836,0.578-2.277,1.292
			c-0.578-1.054-1.429-1.292-2.074-1.292c-1.326,0-1.802,0.714-1.972,1.021h-0.034v-0.748h-2.006v7.174h2.142v-3.808
			c0-0.442,0-1.599,1.224-1.599c1.055,0,1.055,1.122,1.055,1.496v3.91h2.142v-3.91c0-0.408,0-1.496,1.19-1.496
			c1.088,0,1.088,1.021,1.088,1.599v3.808h2.142v-3.91C319.124,408.376,319.022,407.9,318.342,407.186z"/>
		<path d="M271.252,402.324h2.142v-5.542h1.258v-1.632h-1.258v-0.272c0-0.612,0.476-0.68,0.646-0.68h0.918V392.6h-0.952
			c-1.054,0-2.72,0.17-2.72,2.21v0.374h-0.816v1.632h0.816v5.508H271.252z"/>
	</g>
</g>
</svg>
