<?xml version="1.0" encoding="utf-8"?>
<!-- Generator: Adobe Illustrator 15.1.0, SVG Export Plug-In . SVG Version: 6.00 Build 0)  -->
<!DOCTYPE svg PUBLIC "-//W3C//DTD SVG 1.1//EN" "http://www.w3.org/Graphics/SVG/1.1/DTD/svg11.dtd">
<svg version="1.1" id="Layer_1" xmlns="http://www.w3.org/2000/svg" xmlns:xlink="http://www.w3.org/1999/xlink" x="0px" y="0px"
	 width="88.4px" height="82.041px" viewBox="261.799 354.997 88.4 82.041" enable-background="new 261.799 354.997 88.4 82.041"
	 xml:space="preserve">
<g>
	
		<linearGradient id="SVGID_1_" gradientUnits="userSpaceOnUse" x1="3104.6589" y1="836.6362" x2="3104.6589" y2="1096.5457" gradientTransform="matrix(0.34 0 0 0.34 -172.1282 -141.8145)">
		<stop  offset="0" style="stop-color:#8F2C48"/>
		<stop  offset="1" style="stop-color:#E24585"/>
	</linearGradient>
	<path fill="url(#SVGID_1_)" d="M926.228,174.625c-3.229,3.367-7.379,5.916-12.173,7.209c-3.604,0.951-7.274,1.258-10.776,0.713
		c-5.066-0.713-9.452-2.584-12.514-4.352c-12.272-6.766-27.71-17.951-42.874-9.689c3.979-8.092,7.582-14.654,12.717-20.639
		c-12.783,7.752-21.353,21.795-21.353,37.842c0,24.412,19.788,44.201,44.2,44.201s44.2-19.789,44.2-44.201
		C927.656,181.868,927.146,178.163,926.228,174.625z"/>
	<g>
		<rect x="876.894" y="185.608" fill="#FFFFFF" width="2.143" height="1.633"/>
		<path fill="#FFFFFF" d="M855.61,195.4c0.85,0,1.732-0.306,2.072-1.021h0.034v0.783h2.144v-5.645l2.04,5.645h2.039l1.189-3.299
			c0.136,1.666,1.396,3.502,3.842,3.502c1.803,0,2.958-0.986,3.503-2.209v1.971h2.143v-3.943c0-1.088,0.68-1.292,1.7-1.326v-2.143
			c-1.226,0-1.6,0.646-1.804,1.021h-0.032v-0.748h-2.007v1.972c-0.545-1.189-1.699-2.209-3.503-2.209
			c-1.224,0-2.142,0.441-2.754,1.088l0.308-0.851h-2.21l-1.36,4.454h-0.034l-1.36-4.454h-1.665h-0.545h-1.598v0.748h-0.034
			c-0.271-0.442-0.918-1.021-2.073-1.021c-1.903,0-3.604,1.463-3.604,3.809C852.04,193.631,853.366,195.4,855.61,195.4z
			 M868.971,189.756c0.918,0,1.7,0.748,1.7,1.802s-0.782,1.802-1.7,1.802s-1.698-0.748-1.698-1.802
			C867.271,190.538,868.053,189.756,868.971,189.756z M855.95,189.756c1.224,0,1.802,0.951,1.802,1.802
			c0,0.68-0.442,1.836-1.802,1.836c-1.292,0-1.77-1.122-1.77-1.802C854.181,190.776,854.725,189.756,855.95,189.756z"/>
		<rect x="876.894" y="187.989" fill="#FFFFFF" width="2.143" height="7.174"/>
		<polygon fill="#FFFFFF" points="880.634,195.163 882.776,195.163 882.776,189.62 883.796,189.62 883.796,187.989 882.776,187.989 
			882.776,185.608 880.634,185.608 880.634,187.989 879.58,187.989 879.58,189.62 880.634,189.62 		"/>
		<path fill="#FFFFFF" d="M887.807,195.4c0.748,0,1.43-0.204,2.04-0.646c0.612-0.408,1.122-1.021,1.462-1.836h-2.21
			c-0.306,0.373-0.646,0.68-1.292,0.68c-0.85,0-1.562-0.51-1.666-1.36h5.372c0.034-0.17,0.068-0.272,0.068-0.577
			c0-2.177-1.598-3.91-3.774-3.91c-2.176,0-3.738,1.836-3.738,3.842C884.034,193.734,885.767,195.4,887.807,195.4z M887.774,189.551
			c1.122,0,1.528,0.816,1.632,1.225h-3.266C886.244,190.368,886.685,189.551,887.774,189.551z"/>
		<path fill="#FFFFFF" d="M872.542,200.194c-0.238-0.238-0.85-0.85-2.108-0.85c-1.598,0-3.128,1.054-3.468,2.957
			c-0.374-1.733-1.802-2.957-3.672-2.957c-1.768,0-3.162,1.224-3.604,2.754c-0.034-1.02-0.204-1.463-0.748-2.04
			c-0.578-0.612-1.396-0.714-1.87-0.714c-1.088,0-1.836,0.578-2.278,1.291c-0.578-1.053-1.428-1.291-2.074-1.291
			c-1.325,0-1.802,0.714-1.972,1.021h-0.034v-0.748h-2.006v7.174h2.142v-3.809c0-0.441,0-1.598,1.226-1.598
			c1.054,0,1.054,1.121,1.054,1.496v3.91h2.144v-3.91c0-0.408,0-1.496,1.188-1.496c1.088,0,1.088,1.02,1.088,1.598v3.809h2.144
			v-2.449c0.476,1.564,1.938,2.687,3.638,2.687c0.748,0,1.428-0.204,2.04-0.646c0.612-0.408,1.122-1.021,1.462-1.836h-2.21
			c-0.306,0.373-0.646,0.68-1.292,0.68c-0.85,0-1.564-0.51-1.666-1.359h5.304c0.272,1.836,1.6,3.161,3.536,3.161
			c1.428,0,1.974-0.714,2.144-1.021h0.032v0.783h2.04v-9.555h-2.142v2.958L872.542,200.194L872.542,200.194z M861.662,202.404
			c0.102-0.442,0.51-1.224,1.632-1.224s1.53,0.816,1.632,1.224H861.662z M870.807,204.989c-1.02,0-1.802-0.748-1.802-1.837
			c0-0.815,0.578-1.802,1.802-1.802c1.19,0,1.804,0.918,1.804,1.802C872.644,203.9,872.168,204.989,870.807,204.989z"/>
		<rect x="875.33" y="199.616" fill="#FFFFFF" width="2.142" height="7.174"/>
		<rect x="875.33" y="197.202" fill="#FFFFFF" width="2.142" height="1.633"/>
		<path fill="#FFFFFF" d="M882.708,203.56c0,1.122-0.612,1.462-1.224,1.462c-1.156,0-1.156-0.952-1.156-1.428v-3.944h-2.144v4.25
			c0,0.985,0.068,1.496,0.646,2.21c0.646,0.816,1.666,0.918,2.106,0.918c0.546,0,1.43-0.068,1.87-0.986h0.034v0.748h2.04v-7.174
			h-2.142v3.944H882.708L882.708,203.56z"/>
		<path fill="#FFFFFF" d="M895.798,200.092c-0.578-0.612-1.394-0.715-1.87-0.715c-1.088,0-1.836,0.578-2.276,1.293
			c-0.578-1.055-1.43-1.293-2.074-1.293c-1.326,0-1.802,0.715-1.974,1.021h-0.032v-0.748h-2.006v7.175h2.142v-3.809
			c0-0.441,0-1.598,1.224-1.598c1.056,0,1.056,1.121,1.056,1.496v3.91h2.142v-3.91c0-0.408,0-1.496,1.19-1.496
			c1.088,0,1.088,1.02,1.088,1.598v3.809h2.142v-3.91C896.58,201.282,896.478,200.772,895.798,200.092z"/>
		<path fill="#FFFFFF" d="M848.708,195.196h2.142v-5.542h1.26v-1.632h-1.26v-0.271c0-0.612,0.478-0.681,0.646-0.681h0.918v-1.598
			h-0.952c-1.054,0-2.72,0.17-2.72,2.21v0.374h-0.816v1.632h0.816v5.508H848.708z"/>
	</g>
</g>
<g>
	<path fill="#FFFFFF" d="M801.55,249.562c-3.229,3.366-7.378,5.916-12.172,7.208c-3.604,0.952-7.276,1.258-10.778,0.714
		c-5.064-0.714-9.45-2.584-12.512-4.353c-12.273-6.766-27.71-17.951-42.874-9.689c3.979-8.092,7.582-14.654,12.716-20.639
		c-12.784,7.753-21.352,21.795-21.352,37.843c0,24.412,19.788,44.2,44.2,44.2c24.411,0,44.198-19.788,44.198-44.2
		C802.944,256.803,802.468,253.098,801.55,249.562z"/>
	<g>
		
			<linearGradient id="SVGID_2_" gradientUnits="userSpaceOnUse" x1="2721.8103" y1="1178.8042" x2="2721.8103" y2="1242.8859" gradientTransform="matrix(0.34 0 0 0.34 -172.1282 -141.8145)">
			<stop  offset="0" style="stop-color:#8F2C48"/>
			<stop  offset="1" style="stop-color:#E24585"/>
		</linearGradient>
		<rect x="752.216" y="260.543" fill="url(#SVGID_2_)" width="2.144" height="1.633"/>
		
			<linearGradient id="SVGID_3_" gradientUnits="userSpaceOnUse" x1="2681.2605" y1="1178.8062" x2="2681.2605" y2="1242.8207" gradientTransform="matrix(0.34 0 0 0.34 -172.1282 -141.8145)">
			<stop  offset="0" style="stop-color:#8F2C48"/>
			<stop  offset="1" style="stop-color:#E24585"/>
		</linearGradient>
		<path fill="url(#SVGID_3_)" d="M730.931,270.336c0.852,0,1.734-0.307,2.074-1.021h0.034v0.782h2.142v-5.678l2.04,5.644h2.04
			l1.19-3.298c0.136,1.666,1.394,3.502,3.842,3.502c1.802,0,2.958-0.986,3.502-2.21v1.972h2.144v-3.943
			c0-1.088,0.68-1.293,1.699-1.326v-2.143c-1.225,0-1.599,0.646-1.803,1.021h-0.034v-0.748h-2.006v1.972
			c-0.544-1.189-1.7-2.21-3.502-2.21c-1.224,0-2.142,0.442-2.754,1.089l0.306-0.851h-2.21l-1.358,4.454h-0.034l-1.36-4.454h-1.666
			h-0.544h-1.598v0.748h-0.034c-0.272-0.442-0.918-1.021-2.074-1.021c-1.904,0-3.604,1.463-3.604,3.809
			C727.328,268.534,728.654,270.336,730.931,270.336z M744.294,264.692c0.918,0,1.7,0.748,1.7,1.803c0,1.053-0.782,1.801-1.7,1.801
			s-1.7-0.748-1.7-1.801C742.594,265.44,743.376,264.692,744.294,264.692z M731.238,264.692c1.224,0,1.802,0.952,1.802,1.803
			c0,0.68-0.442,1.836-1.802,1.836c-1.292,0-1.77-1.123-1.77-1.803C729.469,265.711,730.013,264.692,731.238,264.692z"/>
		
			<linearGradient id="SVGID_4_" gradientUnits="userSpaceOnUse" x1="2721.8103" y1="1178.813" x2="2721.8103" y2="1242.8105" gradientTransform="matrix(0.34 0 0 0.34 -172.1282 -141.8145)">
			<stop  offset="0" style="stop-color:#8F2C48"/>
			<stop  offset="1" style="stop-color:#E24585"/>
		</linearGradient>
		<rect x="752.216" y="262.924" fill="url(#SVGID_4_)" width="2.144" height="7.174"/>
		
			<linearGradient id="SVGID_5_" gradientUnits="userSpaceOnUse" x1="2732.7595" y1="1178.8101" x2="2732.7595" y2="1242.8136" gradientTransform="matrix(0.34 0 0 0.34 -172.1282 -141.8145)">
			<stop  offset="0" style="stop-color:#8F2C48"/>
			<stop  offset="1" style="stop-color:#E24585"/>
		</linearGradient>
		<polygon fill="url(#SVGID_5_)" points="755.956,270.098 758.097,270.098 758.097,264.556 759.118,264.556 759.118,262.924 
			758.097,262.924 758.097,260.543 755.956,260.543 755.956,262.924 754.902,262.924 754.902,264.556 755.956,264.556 		"/>
		
			<linearGradient id="SVGID_6_" gradientUnits="userSpaceOnUse" x1="2750.8054" y1="1178.813" x2="2750.8054" y2="1242.8109" gradientTransform="matrix(0.34 0 0 0.34 -172.1282 -141.8145)">
			<stop  offset="0" style="stop-color:#8F2C48"/>
			<stop  offset="1" style="stop-color:#E24585"/>
		</linearGradient>
		<path fill="url(#SVGID_6_)" d="M763.13,270.301c0.748,0,1.428-0.203,2.04-0.645c0.612-0.408,1.122-1.021,1.462-1.837h-2.21
			c-0.306,0.374-0.646,0.681-1.292,0.681c-0.85,0-1.562-0.51-1.666-1.36h5.372c0.034-0.171,0.068-0.272,0.068-0.578
			c0-2.177-1.6-3.91-3.774-3.91s-3.74,1.837-3.74,3.843C759.322,268.635,761.055,270.301,763.13,270.301z M763.095,264.489
			c1.122,0,1.53,0.815,1.633,1.223h-3.265C761.566,265.27,761.973,264.489,763.095,264.489z"/>
		
			<linearGradient id="SVGID_7_" gradientUnits="userSpaceOnUse" x1="2673.9148" y1="1178.8149" x2="2673.9148" y2="1242.8141" gradientTransform="matrix(0.34 0 0 0.34 -172.1282 -141.8145)">
			<stop  offset="0" style="stop-color:#8F2C48"/>
			<stop  offset="1" style="stop-color:#E24585"/>
		</linearGradient>
		<path fill="url(#SVGID_7_)" d="M747.83,275.129c-0.238-0.237-0.85-0.85-2.108-0.85c-1.598,0-3.128,1.055-3.468,2.959
			c-0.374-1.734-1.802-2.959-3.672-2.959c-1.768,0-3.162,1.225-3.604,2.754c-0.033-1.02-0.203-1.461-0.747-2.039
			c-0.578-0.613-1.396-0.715-1.87-0.715c-1.088,0-1.836,0.578-2.278,1.293c-0.578-1.055-1.428-1.293-2.074-1.293
			c-1.326,0-1.802,0.715-1.972,1.02h-0.034v-0.748h-2.006v7.175h2.142v-3.808c0-0.442,0-1.599,1.226-1.599
			c1.054,0,1.054,1.122,1.054,1.496v3.91h2.143v-3.91c0-0.407,0-1.496,1.189-1.496c1.088,0,1.088,1.021,1.088,1.599v3.808h2.144
			v-2.448c0.476,1.564,1.938,2.686,3.638,2.686c0.748,0,1.428-0.203,2.04-0.646c0.611-0.407,1.122-1.021,1.462-1.836h-2.21
			c-0.306,0.374-0.646,0.681-1.292,0.681c-0.852,0-1.564-0.511-1.666-1.361h5.304c0.272,1.837,1.6,3.162,3.536,3.162
			c1.428,0,1.972-0.713,2.143-1.02h0.033v0.782h2.04v-9.554h-2.142v2.957H747.83L747.83,275.129z M736.984,277.306
			c0.102-0.442,0.51-1.224,1.632-1.224s1.53,0.815,1.632,1.224H736.984z M746.13,279.924c-1.02,0-1.802-0.748-1.802-1.836
			c0-0.816,0.578-1.803,1.802-1.803c1.19,0,1.802,0.918,1.802,1.803C747.966,278.836,747.456,279.924,746.13,279.924z"/>
		
			<linearGradient id="SVGID_8_" gradientUnits="userSpaceOnUse" x1="2717.2097" y1="1178.8013" x2="2717.2097" y2="1242.8167" gradientTransform="matrix(0.34 0 0 0.34 -172.1282 -141.8145)">
			<stop  offset="0" style="stop-color:#8F2C48"/>
			<stop  offset="1" style="stop-color:#E24585"/>
		</linearGradient>
		<rect x="750.652" y="274.518" fill="url(#SVGID_8_)" width="2.142" height="7.174"/>
		
			<linearGradient id="SVGID_9_" gradientUnits="userSpaceOnUse" x1="2717.2097" y1="1178.8101" x2="2717.2097" y2="1242.8136" gradientTransform="matrix(0.34 0 0 0.34 -172.1282 -141.8145)">
			<stop  offset="0" style="stop-color:#8F2C48"/>
			<stop  offset="1" style="stop-color:#E24585"/>
		</linearGradient>
		<rect x="750.652" y="272.138" fill="url(#SVGID_9_)" width="2.142" height="1.632"/>
		
			<linearGradient id="SVGID_10_" gradientUnits="userSpaceOnUse" x1="2732.3044" y1="1178.8042" x2="2732.3044" y2="1242.8191" gradientTransform="matrix(0.34 0 0 0.34 -172.1282 -141.8145)">
			<stop  offset="0" style="stop-color:#8F2C48"/>
			<stop  offset="1" style="stop-color:#E24585"/>
		</linearGradient>
		<path fill="url(#SVGID_10_)" d="M758.03,278.497c0,1.121-0.612,1.461-1.226,1.461c-1.154,0-1.154-0.951-1.154-1.428v-3.943h-2.144
			v4.283c0,0.986,0.068,1.496,0.646,2.211c0.646,0.815,1.666,0.918,2.106,0.918c0.544,0,1.428-0.068,1.87-0.986h0.034v0.748h2.04
			v-7.174h-2.143v3.91H758.03z"/>
		
			<linearGradient id="SVGID_11_" gradientUnits="userSpaceOnUse" x1="2760.3191" y1="1178.8101" x2="2760.3191" y2="1242.8136" gradientTransform="matrix(0.34 0 0 0.34 -172.1282 -141.8145)">
			<stop  offset="0" style="stop-color:#8F2C48"/>
			<stop  offset="1" style="stop-color:#E24585"/>
		</linearGradient>
		<path fill="url(#SVGID_11_)" d="M771.12,274.995c-0.578-0.613-1.396-0.715-1.87-0.715c-1.088,0-1.836,0.578-2.278,1.293
			c-0.577-1.055-1.428-1.293-2.072-1.293c-1.326,0-1.804,0.715-1.974,1.02h-0.034v-0.748h-2.006v7.175h2.144v-3.808
			c0-0.442,0-1.599,1.224-1.599c1.054,0,1.054,1.122,1.054,1.496v3.91h2.144v-3.91c0-0.407,0-1.496,1.188-1.496
			c1.09,0,1.09,1.021,1.09,1.599v3.808h2.142v-3.91C771.902,276.184,771.8,275.708,771.12,274.995z"/>
		
			<linearGradient id="SVGID_12_" gradientUnits="userSpaceOnUse" x1="2640.0593" y1="1178.812" x2="2640.0593" y2="1242.8112" gradientTransform="matrix(0.34 0 0 0.34 -172.1282 -141.8145)">
			<stop  offset="0" style="stop-color:#8F2C48"/>
			<stop  offset="1" style="stop-color:#E24585"/>
		</linearGradient>
		<path fill="url(#SVGID_12_)" d="M724.03,270.131h2.142v-5.541h1.258v-1.633h-1.258v-0.271c0-0.611,0.478-0.68,0.646-0.68h0.918
			v-1.598h-0.952c-1.055,0-2.72,0.17-2.72,2.209v0.375h-0.816v1.631h0.816v5.508H724.03z"/>
	</g>
</g>
<g>
	<path d="M348.772,381.754c-3.23,3.365-7.38,5.916-12.174,7.207c-3.604,0.953-7.274,1.259-10.776,0.715
		c-5.066-0.715-9.452-2.584-12.514-4.352c-12.272-6.767-27.708-17.953-42.873-9.691c3.978-8.092,7.582-14.653,12.716-20.637
		c-12.784,7.752-21.353,21.793-21.353,37.842c0,24.412,19.788,44.199,44.2,44.199s44.2-19.787,44.2-44.199
		C350.2,388.997,349.69,385.29,348.772,381.754z"/>
	<g>
		<rect x="299.438" y="392.736" fill="#FFFFFF" width="2.142" height="1.632"/>
		<path fill="#FFFFFF" d="M278.154,402.528c0.85,0,1.734-0.307,2.074-1.021h0.034v0.783h2.142v-5.645l2.04,5.645h2.04l1.189-3.299
			c0.137,1.666,1.395,3.502,3.843,3.502c1.802,0,2.958-0.986,3.502-2.209v1.971h2.142v-3.941c0-1.09,0.68-1.293,1.7-1.326v-2.144
			c-1.224,0-1.598,0.646-1.802,1.021h-0.034v-0.748h-2.006v1.971c-0.544-1.189-1.7-2.209-3.502-2.209
			c-1.225,0-2.143,0.441-2.754,1.088l0.306-0.85h-2.21l-1.36,4.453h-0.034l-1.359-4.453h-1.666h-0.544h-1.599v0.748h-0.033
			c-0.272-0.443-0.918-1.021-2.074-1.021c-1.904,0-3.604,1.462-3.604,3.81C274.584,400.725,275.91,402.528,278.154,402.528z
			 M291.516,396.883c0.918,0,1.699,0.748,1.699,1.803s-0.781,1.803-1.699,1.803s-1.7-0.748-1.7-1.803
			S290.598,396.883,291.516,396.883z M278.46,396.883c1.225,0,1.803,0.953,1.803,1.803c0,0.682-0.442,1.838-1.803,1.838
			c-1.292,0-1.768-1.123-1.768-1.805C276.726,397.905,277.236,396.883,278.46,396.883z"/>
		<rect x="299.438" y="395.116" fill="#FFFFFF" width="2.142" height="7.174"/>
		<polygon fill="#FFFFFF" points="303.178,402.29 305.32,402.29 305.32,396.749 306.34,396.749 306.34,395.116 305.32,395.116 
			305.32,392.736 303.178,392.736 303.178,395.116 302.124,395.116 302.124,396.749 303.178,396.749 		"/>
		<path fill="#FFFFFF" d="M310.351,402.495c0.748,0,1.43-0.205,2.04-0.646c0.612-0.406,1.122-1.02,1.462-1.836h-2.21
			c-0.306,0.373-0.646,0.682-1.292,0.682c-0.85,0-1.562-0.512-1.666-1.361h5.372c0.034-0.17,0.068-0.271,0.068-0.578
			c0-2.176-1.598-3.909-3.774-3.909c-2.176,0-3.738,1.835-3.738,3.843C306.578,400.829,308.312,402.495,310.351,402.495z
			 M310.318,396.68c1.122,0,1.528,0.816,1.632,1.225h-3.23C308.788,397.461,309.23,396.68,310.318,396.68z"/>
		<path fill="#FFFFFF" d="M295.052,407.323c-0.237-0.238-0.85-0.852-2.107-0.852c-1.598,0-3.128,1.055-3.468,2.957
			c-0.374-1.732-1.803-2.957-3.672-2.957c-1.769,0-3.162,1.225-3.604,2.754c-0.034-1.02-0.204-1.463-0.748-2.041
			c-0.578-0.609-1.394-0.713-1.87-0.713c-1.088,0-1.836,0.578-2.277,1.291c-0.578-1.053-1.429-1.291-2.074-1.291
			c-1.326,0-1.802,0.713-1.973,1.021h-0.033v-0.748h-2.007v7.174h2.143v-3.809c0-0.441,0-1.6,1.224-1.6
			c1.055,0,1.055,1.123,1.055,1.496v3.91h2.142v-3.91c0-0.408,0-1.496,1.19-1.496c1.088,0,1.088,1.021,1.088,1.6v3.809h2.142v-2.449
			c0.476,1.564,1.938,2.688,3.638,2.688c0.748,0,1.429-0.203,2.04-0.646c0.612-0.406,1.122-1.02,1.462-1.836h-2.21
			c-0.306,0.375-0.646,0.682-1.292,0.682c-0.85,0-1.563-0.512-1.666-1.359h5.305c0.271,1.836,1.598,3.162,3.536,3.162
			c1.428,0,1.972-0.715,2.142-1.021h0.034v0.781h2.04v-9.553h-2.143v2.957H295.052L295.052,407.323z M284.206,409.499
			c0.103-0.443,0.51-1.225,1.632-1.225s1.53,0.814,1.632,1.225H284.206z M293.352,412.116c-1.021,0-1.803-0.748-1.803-1.836
			c0-0.816,0.578-1.803,1.803-1.803c1.189,0,1.802,0.92,1.802,1.803C295.188,411.028,294.678,412.116,293.352,412.116z"/>
		<rect x="297.874" y="406.709" fill="#FFFFFF" width="2.143" height="7.174"/>
		<rect x="297.874" y="404.331" fill="#FFFFFF" width="2.143" height="1.631"/>
		<path fill="#FFFFFF" d="M305.252,410.688c0,1.121-0.611,1.463-1.224,1.463c-1.156,0-1.156-0.953-1.156-1.43v-3.943h-2.142v4.285
			c0,0.984,0.067,1.494,0.646,2.209c0.646,0.814,1.666,0.918,2.108,0.918c0.544,0,1.428-0.068,1.87-0.986h0.034v0.748h2.039v-7.174
			h-2.142v3.91H305.252z"/>
		<path fill="#FFFFFF" d="M318.342,407.186c-0.578-0.611-1.394-0.715-1.87-0.715c-1.088,0-1.836,0.578-2.276,1.293
			c-0.578-1.055-1.43-1.293-2.074-1.293c-1.326,0-1.802,0.715-1.972,1.021h-0.034v-0.748h-2.006v7.174h2.142v-3.807
			c0-0.443,0-1.6,1.224-1.6c1.056,0,1.056,1.121,1.056,1.496v3.91h2.142v-3.91c0-0.408,0-1.496,1.19-1.496
			c1.088,0,1.088,1.021,1.088,1.6v3.807h2.142v-3.91C319.124,408.375,319.022,407.901,318.342,407.186z"/>
		<path fill="#FFFFFF" d="M271.252,402.325h2.143v-5.543h1.258v-1.632h-1.258v-0.272c0-0.611,0.476-0.68,0.646-0.68h0.918V392.6
			h-0.952c-1.054,0-2.72,0.17-2.72,2.21v0.374h-0.815v1.633h0.815v5.508H271.252L271.252,402.325z"/>
	</g>
</g>
<g>
	<path fill="#FFFFFF" d="M1045.805,429.456c-3.229,3.367-7.378,5.916-12.172,7.209c-3.604,0.951-7.274,1.258-10.777,0.713
		c-5.065-0.713-9.451-2.584-12.513-4.352c-12.272-6.768-27.71-17.951-42.874-9.689c3.979-8.092,7.582-14.654,12.716-20.639
		c-12.782,7.752-21.352,21.795-21.352,37.842c0,24.412,19.788,44.201,44.2,44.201s44.2-19.789,44.2-44.201
		C1047.234,436.698,1046.723,432.993,1045.805,429.456z"/>
	<g>
		<rect x="996.471" y="440.405" width="2.144" height="1.631"/>
		<path d="M975.187,450.196c0.852,0,1.734-0.307,2.074-1.021h0.034v0.783h2.144v-5.645l2.039,5.645h2.039l1.19-3.299
			c0.136,1.666,1.395,3.502,3.842,3.502c1.803,0,2.958-0.986,3.502-2.209v1.971h2.144v-3.941c0-1.09,0.68-1.293,1.699-1.326v-2.145
			c-1.225,0-1.599,0.646-1.803,1.021h-0.033v-0.748h-2.007v1.973c-0.544-1.189-1.699-2.211-3.502-2.211
			c-1.224,0-2.142,0.443-2.754,1.088l0.306-0.85h-2.21l-1.358,4.455h-0.034l-1.36-4.455h-1.666h-0.544h-1.598v0.748h-0.034
			c-0.271-0.441-0.918-1.021-2.074-1.021c-1.902,0-3.604,1.463-3.604,3.811C971.618,448.428,972.944,450.196,975.187,450.196z
			 M988.55,444.586c0.918,0,1.7,0.748,1.7,1.801c0,1.057-0.782,1.805-1.7,1.805s-1.7-0.748-1.7-1.805
			C986.849,445.334,987.632,444.586,988.55,444.586z M975.528,444.551c1.224,0,1.802,0.953,1.802,1.805
			c0,0.68-0.442,1.836-1.802,1.836c-1.292,0-1.77-1.123-1.77-1.805C973.76,445.606,974.303,444.551,975.528,444.551z"/>
		<rect x="996.471" y="442.819" width="2.144" height="7.174"/>
		<polygon points="1000.212,449.958 1002.353,449.958 1002.353,444.417 1003.408,444.417 1003.408,442.819 1002.353,442.819 
			1002.353,440.405 1000.212,440.405 1000.212,442.819 999.158,442.819 999.158,444.417 1000.212,444.417 		"/>
		<path d="M1007.385,450.196c0.748,0,1.43-0.203,2.04-0.646c0.612-0.408,1.122-1.02,1.462-1.836h-2.21
			c-0.306,0.375-0.646,0.68-1.292,0.68c-0.85,0-1.562-0.51-1.666-1.357h5.372c0.034-0.17,0.068-0.273,0.068-0.578
			c0-2.176-1.599-3.91-3.774-3.91s-3.739,1.836-3.739,3.842C1003.612,448.53,1005.345,450.196,1007.385,450.196z M1007.351,444.381
			c1.122,0,1.53,0.816,1.634,1.227h-3.266C1005.822,445.165,1006.263,444.381,1007.351,444.381z"/>
		<path d="M992.12,455.024c-0.238-0.238-0.852-0.852-2.108-0.852c-1.598,0-3.128,1.055-3.468,2.959
			c-0.374-1.732-1.802-2.959-3.672-2.959c-1.769,0-3.162,1.227-3.604,2.754c-0.032-1.02-0.202-1.461-0.748-2.039
			c-0.576-0.611-1.394-0.715-1.868-0.715c-1.089,0-1.836,0.578-2.278,1.293c-0.578-1.055-1.428-1.293-2.074-1.293
			c-1.326,0-1.802,0.715-1.972,1.021h-0.034v-0.748h-2.006v7.174h2.142v-3.809c0-0.441,0-1.598,1.226-1.598
			c1.054,0,1.054,1.121,1.054,1.496v3.91h2.142v-3.91c0-0.408,0-1.496,1.19-1.496c1.088,0,1.088,1.021,1.088,1.598v3.809h2.143
			v-2.447c0.477,1.564,1.938,2.688,3.639,2.688c0.748,0,1.428-0.205,2.04-0.646c0.612-0.408,1.122-1.02,1.462-1.836h-2.21
			c-0.307,0.373-0.646,0.68-1.292,0.68c-0.852,0-1.564-0.51-1.666-1.359h5.304c0.272,1.836,1.6,3.162,3.536,3.162
			c1.428,0,1.972-0.713,2.142-1.021h0.034v0.783h2.04v-9.555h-2.142v2.959h-0.037V455.024z M981.24,457.2
			c0.102-0.441,0.51-1.225,1.632-1.225s1.53,0.816,1.632,1.225H981.24z M990.385,459.819c-1.02,0-1.802-0.748-1.802-1.836
			c0-0.816,0.578-1.805,1.802-1.805c1.19,0,1.802,0.918,1.802,1.805C992.221,458.696,991.746,459.819,990.385,459.819z"/>
		<rect x="994.908" y="454.413" width="2.142" height="7.174"/>
		<rect x="994.908" y="452.032" width="2.142" height="1.633"/>
		<path d="M1002.286,458.356c0,1.121-0.612,1.463-1.226,1.463c-1.154,0-1.154-0.953-1.154-1.43v-3.943h-2.144v4.285
			c0,0.984,0.068,1.494,0.646,2.209c0.646,0.814,1.666,0.918,2.106,0.918c0.544,0,1.43-0.068,1.87-0.986h0.034v0.748h2.04v-7.174
			h-2.142v3.91H1002.286z"/>
		<path d="M1015.376,454.887c-0.578-0.609-1.394-0.713-1.87-0.713c-1.088,0-1.836,0.578-2.278,1.291
			c-0.576-1.053-1.428-1.291-2.072-1.291c-1.326,0-1.804,0.713-1.974,1.021h-0.033v-0.748h-2.007v7.174h2.144v-3.809
			c0-0.441,0-1.6,1.224-1.6c1.056,0,1.056,1.123,1.056,1.496v3.91h2.142v-3.91c0-0.408,0-1.496,1.19-1.496
			c1.088,0,1.088,1.021,1.088,1.6v3.809h2.142v-3.91C1016.158,456.079,1016.055,455.602,1015.376,454.887z"/>
		<path d="M968.286,449.993h2.142v-5.543h1.258v-1.631h-1.258v-0.273c0-0.611,0.478-0.68,0.646-0.68h0.918v-1.6h-0.952
			c-1.054,0-2.72,0.172-2.72,2.211v0.373h-0.816v1.635h0.816v5.508H968.286z"/>
	</g>
</g>
</svg>
